<?xml version="1.0" standalone="no"?>
<!DOCTYPE svg PUBLIC "-//W3C//DTD SVG 20010904//EN"
 "http://www.w3.org/TR/2001/REC-SVG-20010904/DTD/svg10.dtd">
<svg version="1.0" xmlns="http://www.w3.org/2000/svg"
 width="1224.000000pt" height="1553.000000pt" viewBox="0 0 1224.000000 1553.000000"
 preserveAspectRatio="xMidYMid meet">
<metadata>
Created by potrace 1.13, written by Peter Selinger 2001-2015
</metadata>
<g transform="translate(0.000000,1553.000000) scale(0.100000,-0.100000)"
fill="#000000" stroke="none">
<path d="M5830 15519 c-639 -20 -1357 -123 -1975 -284 -204 -53 -447 -125
-570 -170 -49 -18 -137 -49 -195 -70 -248 -89 -679 -292 -900 -424 -278 -166
-448 -290 -659 -480 -163 -148 -386 -416 -478 -576 -40 -69 -135 -257 -155
-305 -6 -14 -14 -34 -19 -45 -17 -41 -69 -223 -84 -295 -9 -41 -19 -82 -22
-90 -9 -24 -11 -54 -19 -236 -38 -917 432 -1671 1409 -2258 1097 -659 2807
-1039 4347 -966 745 36 1456 153 2150 356 85 25 161 51 168 58 11 10 10 16 -5
33 -24 28 -2548 2370 -2598 2410 -84 69 -22 35 155 -86 623 -426 1926 -1315
2220 -1513 190 -129 452 -308 745 -509 65 -46 128 -84 140 -86 29 -5 429 196
619 311 295 179 492 331 706 546 366 366 586 774 665 1234 20 119 37 393 30
486 -44 551 -266 1011 -695 1440 -220 222 -410 367 -740 567 -159 96 -204 120
-370 198 -473 221 -882 366 -1385 490 -645 159 -1250 242 -1930 265 -165 5
-304 9 -310 8 -5 -1 -116 -5 -245 -9z"/>
<path d="M371 8133 c-189 -2305 -348 -4211 -353 -4235 -5 -24 -12 -153 -15
-288 -4 -195 -2 -271 11 -370 63 -480 245 -888 577 -1292 101 -123 350 -364
499 -484 958 -766 2524 -1293 4250 -1429 1552 -122 3241 138 4557 701 1250
534 2036 1296 2269 2199 50 196 65 307 71 545 4 163 1 247 -11 350 -9 74 -164
1984 -346 4245 -181 2261 -333 4135 -337 4165 -6 50 -8 45 -14 -66 -17 -275
-81 -525 -200 -772 -125 -262 -269 -463 -494 -687 -219 -220 -414 -371 -711
-551 -196 -119 -587 -314 -614 -307 -14 4 -20 0 -20 -11 0 -9 4 -16 10 -16 5
0 12 -22 16 -50 4 -27 10 -50 15 -50 5 0 9 -4 9 -10 0 -5 -7 -10 -15 -10 -16
0 -20 -16 -6 -24 5 -3 12 -27 16 -53 4 -27 11 -50 16 -53 5 -4 5 -29 0 -60 -5
-32 -5 -60 0 -66 5 -6 12 -32 15 -58 4 -25 11 -46 15 -46 5 0 9 -4 9 -10 0 -5
-7 -10 -15 -10 -8 0 -15 -4 -15 -10 0 -5 4 -10 9 -10 5 0 12 -24 16 -52 4 -29
13 -56 19 -60 7 -5 5 -8 -6 -8 -10 0 -18 -7 -18 -15 0 -8 4 -15 9 -15 5 0 12
-24 16 -52 4 -29 13 -56 19 -60 7 -5 5 -8 -6 -8 -10 0 -18 -7 -18 -15 0 -8 4
-15 9 -15 5 0 12 -24 16 -52 4 -29 13 -56 19 -60 7 -5 5 -8 -6 -8 -10 0 -18
-7 -18 -15 0 -8 5 -15 11 -15 8 0 9 -13 5 -40 -4 -25 -2 -40 4 -40 5 0 10 -7
10 -15 0 -8 5 -15 10 -15 7 0 8 -13 4 -36 -5 -26 -3 -39 7 -45 11 -7 10 -9 -3
-9 -10 0 -18 -7 -18 -15 0 -8 4 -15 9 -15 5 0 12 -24 16 -52 4 -29 13 -56 19
-60 7 -5 5 -8 -6 -8 -10 0 -18 -7 -18 -15 0 -8 4 -15 9 -15 5 0 12 -24 16 -52
4 -29 13 -56 19 -60 7 -5 5 -8 -6 -8 -10 0 -18 -7 -18 -15 0 -8 4 -15 9 -15 5
0 12 -24 15 -52 4 -29 13 -56 19 -60 8 -5 6 -8 -5 -8 -10 0 -18 -7 -18 -15 0
-8 4 -15 9 -15 5 0 12 -24 15 -52 4 -29 12 -55 17 -58 6 -4 5 -26 -1 -60 -6
-32 -7 -56 -1 -59 5 -3 12 -28 16 -56 4 -27 13 -53 19 -57 7 -5 4 -8 -6 -8
-21 0 -23 -11 -6 -28 6 -6 12 -41 12 -77 1 -36 4 -65 8 -65 3 0 9 -27 13 -60
4 -33 10 -60 13 -60 6 0 13 -89 16 -210 0 -25 5 -48 9 -51 5 -4 9 -37 10 -75
1 -38 6 -72 10 -75 5 -4 9 -37 10 -75 1 -38 6 -72 11 -75 5 -4 9 -39 10 -78 0
-39 4 -71 7 -71 4 0 9 -27 13 -60 4 -33 10 -60 14 -60 6 0 13 -98 15 -210 0
-25 5 -48 10 -51 5 -4 9 -37 10 -75 1 -38 6 -72 11 -75 5 -4 9 -39 10 -78 1
-43 5 -70 11 -67 6 2 10 -27 10 -76 -1 -56 2 -77 11 -74 8 3 9 -6 3 -32 -5
-22 -4 -41 1 -46 6 -6 10 -18 10 -28 0 -10 5 -18 11 -18 10 0 9 -16 -8 -89 -5
-18 -2 -23 8 -19 11 4 14 -9 14 -68 -1 -45 3 -74 10 -74 6 0 10 -29 10 -75 -1
-46 3 -75 10 -75 6 0 10 -29 10 -75 -1 -46 3 -75 10 -75 6 0 11 -26 11 -61 1
-35 7 -65 14 -69 9 -5 9 -17 0 -50 -9 -32 -9 -45 0 -50 7 -4 12 -37 13 -79 1
-39 6 -71 12 -71 6 0 10 -31 10 -75 -1 -46 3 -75 10 -75 6 0 10 -29 10 -75 -1
-46 3 -75 10 -75 6 0 11 -26 11 -61 1 -34 6 -64 11 -68 5 -3 9 -28 9 -56 1
-78 10 -181 18 -194 4 -6 8 -40 9 -76 1 -37 6 -65 12 -65 6 0 10 -29 9 -75 -1
-49 3 -75 10 -75 7 0 12 -26 13 -66 1 -40 6 -70 13 -74 10 -6 10 -16 0 -44 -9
-28 -9 -40 0 -51 6 -7 12 -43 13 -79 1 -38 6 -66 12 -66 6 0 10 -29 9 -75 -1
-50 3 -75 10 -75 8 0 11 -25 10 -76 -1 -53 2 -74 11 -71 8 4 11 -17 9 -75 -2
-57 1 -78 9 -75 8 3 12 -17 13 -65 0 -46 5 -72 13 -78 11 -6 11 -15 1 -44 -9
-28 -9 -40 0 -51 6 -7 12 -43 13 -79 1 -43 6 -65 13 -62 7 3 10 -22 9 -74 -2
-58 1 -77 10 -74 8 4 11 -17 10 -76 -2 -59 1 -80 9 -77 9 4 12 -19 10 -84 -2
-67 1 -87 9 -80 9 7 12 -5 12 -44 0 -38 -3 -51 -12 -48 -7 3 -13 -2 -13 -11 0
-9 7 -16 15 -16 8 0 15 -7 15 -15 0 -8 3 -15 8 -15 8 0 10 -142 1 -150 -10 -9
-28 -128 -22 -149 3 -12 1 -21 -5 -21 -13 0 -36 -59 -34 -87 1 -15 -4 -23 -13
-23 -10 0 -15 -10 -15 -30 0 -20 -5 -30 -15 -30 -9 0 -15 -9 -15 -25 0 -14 -4
-25 -10 -25 -5 0 -10 -7 -10 -15 0 -8 -7 -15 -15 -15 -8 0 -15 -9 -15 -20 0
-11 -5 -20 -11 -20 -6 0 -41 -28 -78 -62 -111 -105 -236 -176 -364 -208 -26
-7 -47 -17 -47 -22 0 -5 -15 -6 -35 -2 -21 4 -35 2 -35 -4 0 -11 -74 -8 -210
10 -47 6 -97 11 -112 10 -15 -1 -29 5 -32 13 -3 8 -12 15 -20 15 -36 0 -199
95 -275 160 -44 38 -85 70 -91 70 -5 0 -10 7 -10 15 0 23 -30 65 -46 65 -8 0
-14 8 -14 19 0 10 -11 39 -25 64 -29 51 -70 163 -80 220 -4 20 -10 37 -14 37
-3 0 -5 226 -3 502 7 1425 6 4478 -2 4481 -4 1 -3 111 3 242 13 277 15 2435 3
2435 -4 0 -12 -4 -18 -9 -19 -19 -407 -126 -689 -191 -789 -179 -1647 -257
-2420 -220 -1373 67 -2682 419 -3592 966 -687 412 -1125 908 -1318 1490 -59
178 -92 376 -108 639 -1 22 -157 -1846 -346 -4152z"/>
</g>
</svg>
